<svg width="40" height="40" viewBox="0 0 40 40" fill="none" xmlns="http://www.w3.org/2000/svg">
<path d="M34.8717 0V15.3707C32.8545 13.7318 30.3687 12.649 27.646 12.354C26.8944 5.40758 21.0101 0 13.8636 0C10.5525 0 7.51263 1.16061 5.12828 3.09798C1.99949 5.6399 0 9.51818 0 13.8636V40H5.12828V12.3535C5.84495 8.17727 9.48283 5 13.8636 5C18.2444 5 22.0899 8.36162 22.6535 12.7141C17.7955 13.9707 13.9707 17.7955 12.7141 22.6535C12.4258 23.7662 12.2727 24.9333 12.2727 26.1364C12.2727 26.6465 12.3005 27.1495 12.354 27.6455C13.1061 34.5924 18.9899 40 26.1364 40C29.4475 40 32.4874 38.8394 34.8717 36.902C38.0005 34.3601 40 30.4818 40 26.1364V0H34.8717ZM34.8717 27.6465C34.1551 31.8227 30.5172 35 26.1364 35C21.7556 35 17.9101 31.6384 17.3465 27.2859C17.298 26.9096 17.2727 26.5258 17.2727 26.1364C17.2727 24.3434 17.805 22.6742 18.7207 21.2793C19.3889 20.2611 20.2611 19.3889 21.2793 18.7207C22.6742 17.805 24.3434 17.2727 26.1364 17.2727C26.5258 17.2727 26.9096 17.298 27.2859 17.3465C31.1409 17.846 34.2187 20.8217 34.8717 24.6263C34.9561 25.1172 35 25.6217 35 26.1364C35 26.651 34.9561 27.1556 34.8717 27.6465Z" fill="white"/>
</svg>
